<mxfile host="app.diagrams.net" agent="Mozilla/5.0 (Windows NT 10.0; Win64; x64) AppleWebKit/537.36 (KHTML, like Gecko) Chrome/132.0.0.0 Safari/537.36" version="26.0.6">
  <diagram id="Ht1M8jgEwFfnCIfOTk4-" name="Page-1">
    <mxGraphModel grid="1" page="1" gridSize="10" guides="1" tooltips="1" connect="1" arrows="1" fold="1" pageScale="1" pageWidth="1169" pageHeight="827" math="0" shadow="0">
      <root>
        <mxCell id="0" />
        <mxCell id="1" parent="0" />
        <mxCell id="UEzPUAAOIrF-is8g5C7q-74" value="" style="points=[[0,0],[0.25,0],[0.5,0],[0.75,0],[1,0],[1,0.25],[1,0.5],[1,0.75],[1,1],[0.75,1],[0.5,1],[0.25,1],[0,1],[0,0.75],[0,0.5],[0,0.25]];outlineConnect=0;gradientColor=none;html=1;whiteSpace=wrap;fontSize=12;fontStyle=0;shape=mxgraph.aws4.group;grIcon=mxgraph.aws4.group_aws_cloud_alt;strokeColor=#232F3E;fillColor=none;verticalAlign=top;align=left;spacingLeft=30;fontColor=#232F3E;dashed=0;labelBackgroundColor=#ffffff;container=1;pointerEvents=0;collapsible=0;recursiveResize=0;" vertex="1" parent="1">
          <mxGeometry x="370" y="50" width="780" height="610" as="geometry" />
        </mxCell>
        <mxCell id="UEzPUAAOIrF-is8g5C7q-107" value="" style="rounded=0;whiteSpace=wrap;html=1;labelBackgroundColor=none;fillColor=none;dashed=1;container=1;pointerEvents=0;collapsible=0;recursiveResize=0;" vertex="1" parent="UEzPUAAOIrF-is8g5C7q-74">
          <mxGeometry x="20" y="30" width="360" height="570" as="geometry" />
        </mxCell>
        <mxCell id="PihacIWAbZqx37nElcyu-108" value="" style="sketch=0;outlineConnect=0;fontColor=#232F3E;gradientColor=none;fillColor=#01A88D;strokeColor=none;dashed=0;verticalLabelPosition=bottom;verticalAlign=top;align=center;html=1;fontSize=12;fontStyle=0;aspect=fixed;pointerEvents=1;shape=mxgraph.aws4.textract_analyze_lending;" vertex="1" parent="UEzPUAAOIrF-is8g5C7q-107">
          <mxGeometry x="141" y="220" width="78" height="78" as="geometry" />
        </mxCell>
        <mxCell id="UEzPUAAOIrF-is8g5C7q-87" value="Amazon&lt;br&gt;DynamoDB" style="outlineConnect=0;fontColor=#232F3E;gradientColor=#4D72F3;gradientDirection=north;fillColor=#3334B9;strokeColor=#ffffff;dashed=0;verticalLabelPosition=bottom;verticalAlign=top;align=center;html=1;fontSize=12;fontStyle=0;aspect=fixed;shape=mxgraph.aws4.resourceIcon;resIcon=mxgraph.aws4.dynamodb;labelBackgroundColor=#ffffff;" vertex="1" parent="UEzPUAAOIrF-is8g5C7q-107">
          <mxGeometry x="20" y="220" width="78" height="78" as="geometry" />
        </mxCell>
        <mxCell id="PihacIWAbZqx37nElcyu-125" value="" style="edgeStyle=elbowEdgeStyle;elbow=horizontal;endArrow=classic;html=1;curved=0;rounded=0;endSize=8;startSize=8;strokeWidth=2;" edge="1" parent="UEzPUAAOIrF-is8g5C7q-107">
          <mxGeometry width="50" height="50" relative="1" as="geometry">
            <mxPoint x="397.48" y="130" as="sourcePoint" />
            <mxPoint x="249.9973076923077" y="130" as="targetPoint" />
            <Array as="points">
              <mxPoint x="407.48" y="130" />
            </Array>
          </mxGeometry>
        </mxCell>
        <mxCell id="PihacIWAbZqx37nElcyu-143" value="" style="edgeStyle=orthogonalEdgeStyle;rounded=0;orthogonalLoop=1;jettySize=auto;html=1;dashed=1;dashPattern=8 8;" edge="1" parent="UEzPUAAOIrF-is8g5C7q-107" source="PihacIWAbZqx37nElcyu-75" target="UEzPUAAOIrF-is8g5C7q-87">
          <mxGeometry relative="1" as="geometry" />
        </mxCell>
        <mxCell id="PihacIWAbZqx37nElcyu-75" value="" style="sketch=0;outlineConnect=0;fontColor=#232F3E;gradientColor=none;fillColor=#C925D1;strokeColor=none;dashed=0;verticalLabelPosition=bottom;verticalAlign=top;align=center;html=1;fontSize=12;fontStyle=0;aspect=fixed;pointerEvents=1;shape=mxgraph.aws4.rds_mysql_instance_alt;" vertex="1" parent="UEzPUAAOIrF-is8g5C7q-107">
          <mxGeometry x="20" y="343" width="78" height="78" as="geometry" />
        </mxCell>
        <mxCell id="PihacIWAbZqx37nElcyu-130" value="" style="sketch=0;points=[[0,0,0],[0.25,0,0],[0.5,0,0],[0.75,0,0],[1,0,0],[0,1,0],[0.25,1,0],[0.5,1,0],[0.75,1,0],[1,1,0],[0,0.25,0],[0,0.5,0],[0,0.75,0],[1,0.25,0],[1,0.5,0],[1,0.75,0]];outlineConnect=0;fontColor=#232F3E;fillColor=#C925D1;strokeColor=#ffffff;dashed=0;verticalLabelPosition=bottom;verticalAlign=top;align=center;html=1;fontSize=12;fontStyle=0;aspect=fixed;shape=mxgraph.aws4.resourceIcon;resIcon=mxgraph.aws4.developer_tools;" vertex="1" parent="UEzPUAAOIrF-is8g5C7q-107">
          <mxGeometry x="260" y="220" width="78" height="78" as="geometry" />
        </mxCell>
        <mxCell id="PihacIWAbZqx37nElcyu-71" value="" style="sketch=0;outlineConnect=0;fontColor=#232F3E;gradientColor=none;fillColor=#232F3D;strokeColor=none;dashed=0;verticalLabelPosition=bottom;verticalAlign=top;align=center;html=1;fontSize=12;fontStyle=0;aspect=fixed;pointerEvents=1;shape=mxgraph.aws4.authenticated_user;container=1;" vertex="1" parent="UEzPUAAOIrF-is8g5C7q-107">
          <mxGeometry x="147.14999999999998" y="467" width="65.7" height="70" as="geometry" />
        </mxCell>
        <mxCell id="PihacIWAbZqx37nElcyu-76" value="" style="shape=image;html=1;verticalLabelPosition=bottom;verticalAlign=top;imageAspect=0;image=img/clipart/Gear_128x128.png" vertex="1" parent="PihacIWAbZqx37nElcyu-71">
          <mxGeometry x="33.483138014527846" y="31.977272727272727" width="38.17917675544794" height="42.31818181818182" as="geometry" />
        </mxCell>
        <mxCell id="UEzPUAAOIrF-is8g5C7q-96" style="edgeStyle=orthogonalEdgeStyle;rounded=0;orthogonalLoop=1;jettySize=auto;html=1;endArrow=open;endFill=0;strokeWidth=2;startArrow=open;startFill=0;" edge="1" parent="UEzPUAAOIrF-is8g5C7q-74" source="PihacIWAbZqx37nElcyu-105" target="UEzPUAAOIrF-is8g5C7q-87">
          <mxGeometry relative="1" as="geometry">
            <Array as="points">
              <mxPoint x="170" y="200" />
              <mxPoint x="99" y="200" />
            </Array>
            <mxPoint x="573" y="568" as="sourcePoint" />
            <mxPoint x="463" y="630" as="targetPoint" />
          </mxGeometry>
        </mxCell>
        <mxCell id="PihacIWAbZqx37nElcyu-105" value="&lt;h4 style=&quot;margin-top: 0px; padding-top: 0px;&quot;&gt;&lt;br&gt;&lt;/h4&gt;" style="sketch=0;outlineConnect=0;fontColor=#232F3E;gradientColor=none;fillColor=#232F3D;strokeColor=none;dashed=0;verticalLabelPosition=bottom;verticalAlign=top;align=center;html=1;fontSize=12;fontStyle=0;aspect=fixed;pointerEvents=1;shape=mxgraph.aws4.management_console2;" vertex="1" parent="UEzPUAAOIrF-is8g5C7q-74">
          <mxGeometry x="137" y="57" width="135.65" height="120" as="geometry" />
        </mxCell>
        <mxCell id="PihacIWAbZqx37nElcyu-110" value="" style="rounded=0;whiteSpace=wrap;html=1;labelBackgroundColor=none;fillColor=none;dashed=1;container=1;pointerEvents=0;collapsible=0;recursiveResize=0;" vertex="1" parent="UEzPUAAOIrF-is8g5C7q-74">
          <mxGeometry x="400" y="30" width="360" height="570" as="geometry" />
        </mxCell>
        <mxCell id="PihacIWAbZqx37nElcyu-107" value="" style="sketch=0;outlineConnect=0;fontColor=#232F3E;gradientColor=none;fillColor=#01A88D;strokeColor=none;dashed=0;verticalLabelPosition=bottom;verticalAlign=top;align=center;html=1;fontSize=12;fontStyle=0;aspect=fixed;pointerEvents=1;shape=mxgraph.aws4.sagemaker_train;" vertex="1" parent="PihacIWAbZqx37nElcyu-110">
          <mxGeometry x="30" y="88.98" width="78" height="65" as="geometry" />
        </mxCell>
        <mxCell id="PihacIWAbZqx37nElcyu-131" value="" style="sketch=0;outlineConnect=0;fontColor=#232F3E;gradientColor=none;fillColor=#DD344C;strokeColor=none;dashed=0;verticalLabelPosition=bottom;verticalAlign=top;align=center;html=1;fontSize=12;fontStyle=0;aspect=fixed;pointerEvents=1;shape=mxgraph.aws4.organizations_account;" vertex="1" parent="PihacIWAbZqx37nElcyu-110">
          <mxGeometry x="149.18" y="444.5" width="80.82" height="85.19" as="geometry" />
        </mxCell>
        <mxCell id="PihacIWAbZqx37nElcyu-74" value="" style="sketch=0;points=[[0,0,0],[0.25,0,0],[0.5,0,0],[0.75,0,0],[1,0,0],[0,1,0],[0.25,1,0],[0.5,1,0],[0.75,1,0],[1,1,0],[0,0.25,0],[0,0.5,0],[0,0.75,0],[1,0.25,0],[1,0.5,0],[1,0.75,0]];outlineConnect=0;fontColor=#232F3E;fillColor=#C925D1;strokeColor=#ffffff;dashed=0;verticalLabelPosition=bottom;verticalAlign=top;align=center;html=1;fontSize=12;fontStyle=0;aspect=fixed;shape=mxgraph.aws4.resourceIcon;resIcon=mxgraph.aws4.database;" vertex="1" parent="PihacIWAbZqx37nElcyu-110">
          <mxGeometry x="270" y="334" width="78" height="78" as="geometry" />
        </mxCell>
        <mxCell id="PihacIWAbZqx37nElcyu-146" value="" style="edgeStyle=orthogonalEdgeStyle;rounded=0;orthogonalLoop=1;jettySize=auto;html=1;" edge="1" parent="PihacIWAbZqx37nElcyu-110" source="PihacIWAbZqx37nElcyu-137" target="PihacIWAbZqx37nElcyu-106">
          <mxGeometry relative="1" as="geometry" />
        </mxCell>
        <mxCell id="PihacIWAbZqx37nElcyu-147" value="" style="edgeStyle=orthogonalEdgeStyle;rounded=0;orthogonalLoop=1;jettySize=auto;html=1;" edge="1" parent="PihacIWAbZqx37nElcyu-110" source="PihacIWAbZqx37nElcyu-137" target="PihacIWAbZqx37nElcyu-74">
          <mxGeometry relative="1" as="geometry" />
        </mxCell>
        <mxCell id="PihacIWAbZqx37nElcyu-137" value="" style="sketch=0;points=[[0,0,0],[0.25,0,0],[0.5,0,0],[0.75,0,0],[1,0,0],[0,1,0],[0.25,1,0],[0.5,1,0],[0.75,1,0],[1,1,0],[0,0.25,0],[0,0.5,0],[0,0.75,0],[1,0.25,0],[1,0.5,0],[1,0.75,0]];outlineConnect=0;fontColor=#232F3E;fillColor=#C925D1;strokeColor=#ffffff;dashed=0;verticalLabelPosition=bottom;verticalAlign=top;align=center;html=1;fontSize=12;fontStyle=0;aspect=fixed;shape=mxgraph.aws4.resourceIcon;resIcon=mxgraph.aws4.developer_tools;" vertex="1" parent="PihacIWAbZqx37nElcyu-110">
          <mxGeometry x="141" y="334" width="78" height="78" as="geometry" />
        </mxCell>
        <mxCell id="UEzPUAAOIrF-is8g5C7q-78" value="Prompt Template" style="outlineConnect=0;fontColor=#232F3E;gradientColor=none;fillColor=#277116;strokeColor=none;dashed=0;verticalLabelPosition=bottom;verticalAlign=top;align=center;html=1;fontSize=12;fontStyle=0;aspect=fixed;pointerEvents=1;shape=mxgraph.aws4.bucket_with_objects;labelBackgroundColor=#ffffff;" vertex="1" parent="PihacIWAbZqx37nElcyu-110">
          <mxGeometry x="230" y="20.000000000000007" width="80" height="83.2" as="geometry" />
        </mxCell>
        <mxCell id="PihacIWAbZqx37nElcyu-106" value="" style="sketch=0;points=[[0,0,0],[0.25,0,0],[0.5,0,0],[0.75,0,0],[1,0,0],[0,1,0],[0.25,1,0],[0.5,1,0],[0.75,1,0],[1,1,0],[0,0.25,0],[0,0.5,0],[0,0.75,0],[1,0.25,0],[1,0.5,0],[1,0.75,0]];gradientDirection=north;outlineConnect=0;fontColor=#232F3E;gradientColor=none;fillColor=#1E262E;strokeColor=#ffffff;dashed=0;verticalLabelPosition=bottom;verticalAlign=top;align=center;html=1;fontSize=12;fontStyle=0;aspect=fixed;shape=mxgraph.aws4.resourceIcon;resIcon=mxgraph.aws4.general;" vertex="1" parent="PihacIWAbZqx37nElcyu-110">
          <mxGeometry x="120" y="160" width="120" height="120" as="geometry" />
        </mxCell>
        <mxCell id="PihacIWAbZqx37nElcyu-127" value="" style="edgeStyle=elbowEdgeStyle;elbow=horizontal;endArrow=classic;html=1;curved=0;rounded=0;endSize=8;startSize=8;strokeWidth=2;" edge="1" parent="PihacIWAbZqx37nElcyu-110" source="PihacIWAbZqx37nElcyu-106" target="PihacIWAbZqx37nElcyu-107">
          <mxGeometry width="50" height="50" relative="1" as="geometry">
            <mxPoint x="-210" y="340" as="sourcePoint" />
            <mxPoint x="-160" y="290" as="targetPoint" />
            <Array as="points">
              <mxPoint x="154" y="130" />
            </Array>
          </mxGeometry>
        </mxCell>
        <mxCell id="PihacIWAbZqx37nElcyu-139" value="" style="edgeStyle=orthogonalEdgeStyle;rounded=0;orthogonalLoop=1;jettySize=auto;html=1;entryX=0.75;entryY=0;entryDx=0;entryDy=0;entryPerimeter=0;strokeWidth=2;" edge="1" parent="PihacIWAbZqx37nElcyu-110" source="UEzPUAAOIrF-is8g5C7q-78" target="PihacIWAbZqx37nElcyu-106">
          <mxGeometry relative="1" as="geometry">
            <mxPoint x="607.5" y="188" as="targetPoint" />
            <Array as="points">
              <mxPoint x="250" y="130" />
              <mxPoint x="210" y="130" />
            </Array>
          </mxGeometry>
        </mxCell>
        <mxCell id="UEzPUAAOIrF-is8g5C7q-93" style="edgeStyle=orthogonalEdgeStyle;rounded=0;orthogonalLoop=1;jettySize=auto;html=1;endArrow=open;endFill=0;strokeWidth=1;" edge="1" parent="PihacIWAbZqx37nElcyu-110" source="PihacIWAbZqx37nElcyu-74" target="UEzPUAAOIrF-is8g5C7q-78">
          <mxGeometry relative="1" as="geometry">
            <Array as="points">
              <mxPoint x="310" y="219" />
              <mxPoint x="340" y="219" />
              <mxPoint x="340" y="62" />
            </Array>
            <mxPoint x="297" y="398" as="sourcePoint" />
            <mxPoint x="212" y="490" as="targetPoint" />
          </mxGeometry>
        </mxCell>
        <mxCell id="PihacIWAbZqx37nElcyu-151" value="&lt;h2&gt;Model&lt;/h2&gt;" style="text;html=1;align=center;verticalAlign=middle;whiteSpace=wrap;rounded=0;" vertex="1" parent="PihacIWAbZqx37nElcyu-110">
          <mxGeometry x="150" y="130" width="60" height="30" as="geometry" />
        </mxCell>
        <mxCell id="PihacIWAbZqx37nElcyu-123" value="" style="curved=1;endArrow=classic;html=1;rounded=0;" edge="1" parent="UEzPUAAOIrF-is8g5C7q-74">
          <mxGeometry width="50" height="50" relative="1" as="geometry">
            <mxPoint x="444.6306122910903" y="126.07928061430687" as="sourcePoint" />
            <mxPoint x="600" y="70" as="targetPoint" />
            <Array as="points">
              <mxPoint x="410" y="80" />
              <mxPoint x="460" y="60.129999999999995" />
            </Array>
          </mxGeometry>
        </mxCell>
        <mxCell id="PihacIWAbZqx37nElcyu-126" value="" style="edgeStyle=elbowEdgeStyle;elbow=horizontal;endArrow=classic;html=1;curved=0;rounded=0;endSize=8;startSize=8;strokeWidth=2;" edge="1" parent="UEzPUAAOIrF-is8g5C7q-74" target="UEzPUAAOIrF-is8g5C7q-78">
          <mxGeometry width="50" height="50" relative="1" as="geometry">
            <mxPoint x="492.65882406563367" y="90" as="sourcePoint" />
            <mxPoint x="712.6500000000001" y="90" as="targetPoint" />
            <Array as="points">
              <mxPoint x="272.65" y="90" />
            </Array>
          </mxGeometry>
        </mxCell>
        <mxCell id="PihacIWAbZqx37nElcyu-144" value="" style="edgeStyle=orthogonalEdgeStyle;rounded=0;orthogonalLoop=1;jettySize=auto;html=1;" edge="1" parent="UEzPUAAOIrF-is8g5C7q-74" source="PihacIWAbZqx37nElcyu-108" target="PihacIWAbZqx37nElcyu-105">
          <mxGeometry relative="1" as="geometry">
            <Array as="points">
              <mxPoint x="200" y="200" />
              <mxPoint x="200" y="200" />
            </Array>
          </mxGeometry>
        </mxCell>
        <mxCell id="PihacIWAbZqx37nElcyu-145" value="" style="edgeStyle=orthogonalEdgeStyle;rounded=0;orthogonalLoop=1;jettySize=auto;html=1;exitX=0.5;exitY=0;exitDx=0;exitDy=0;exitPerimeter=0;" edge="1" parent="UEzPUAAOIrF-is8g5C7q-74" source="PihacIWAbZqx37nElcyu-130" target="PihacIWAbZqx37nElcyu-105">
          <mxGeometry relative="1" as="geometry">
            <mxPoint x="210" y="260" as="sourcePoint" />
            <mxPoint x="210" y="187" as="targetPoint" />
            <Array as="points">
              <mxPoint x="320" y="250" />
              <mxPoint x="320" y="224" />
              <mxPoint x="230" y="224" />
            </Array>
          </mxGeometry>
        </mxCell>
        <mxCell id="PihacIWAbZqx37nElcyu-150" value="&lt;h1&gt;Web site&lt;/h1&gt;" style="text;html=1;align=center;verticalAlign=middle;whiteSpace=wrap;rounded=0;" vertex="1" parent="UEzPUAAOIrF-is8g5C7q-74">
          <mxGeometry x="147.24" y="27" width="115.18" height="30" as="geometry" />
        </mxCell>
        <mxCell id="PihacIWAbZqx37nElcyu-61" value="" style="points=[[0,0],[0.25,0],[0.5,0],[0.75,0],[1,0],[1,0.25],[1,0.5],[1,0.75],[1,1],[0.75,1],[0.5,1],[0.25,1],[0,1],[0,0.75],[0,0.5],[0,0.25]];outlineConnect=0;gradientColor=none;html=1;whiteSpace=wrap;fontSize=12;fontStyle=0;shape=mxgraph.aws4.group;grIcon=mxgraph.aws4.group_aws_cloud_alt;strokeColor=#232F3E;fillColor=none;verticalAlign=top;align=left;spacingLeft=30;fontColor=#232F3E;dashed=0;labelBackgroundColor=#ffffff;container=1;pointerEvents=0;collapsible=0;recursiveResize=0;" vertex="1" parent="1">
          <mxGeometry x="70" y="50" width="290" height="610" as="geometry" />
        </mxCell>
        <mxCell id="PihacIWAbZqx37nElcyu-73" value="Private subnet" style="points=[[0,0],[0.25,0],[0.5,0],[0.75,0],[1,0],[1,0.25],[1,0.5],[1,0.75],[1,1],[0.75,1],[0.5,1],[0.25,1],[0,1],[0,0.75],[0,0.5],[0,0.25]];outlineConnect=0;gradientColor=none;html=1;whiteSpace=wrap;fontSize=12;fontStyle=0;container=1;pointerEvents=0;collapsible=0;recursiveResize=0;shape=mxgraph.aws4.group;grIcon=mxgraph.aws4.group_security_group;grStroke=0;strokeColor=#00A4A6;fillColor=#E6F6F7;verticalAlign=top;align=left;spacingLeft=30;fontColor=#147EBA;dashed=0;" vertex="1" parent="PihacIWAbZqx37nElcyu-61">
          <mxGeometry x="10" y="337" width="241" height="150" as="geometry" />
        </mxCell>
        <mxCell id="PihacIWAbZqx37nElcyu-79" value="" style="sketch=0;outlineConnect=0;fontColor=#232F3E;gradientColor=none;fillColor=#232F3D;strokeColor=none;dashed=0;verticalLabelPosition=bottom;verticalAlign=top;align=center;html=1;fontSize=12;fontStyle=0;aspect=fixed;pointerEvents=1;shape=mxgraph.aws4.user;" vertex="1" parent="PihacIWAbZqx37nElcyu-73">
          <mxGeometry x="13" y="50" width="78" height="78" as="geometry" />
        </mxCell>
        <mxCell id="PihacIWAbZqx37nElcyu-136" value="" style="sketch=0;outlineConnect=0;fontColor=#232F3E;gradientColor=none;fillColor=#232F3D;strokeColor=none;dashed=0;verticalLabelPosition=bottom;verticalAlign=top;align=center;html=1;fontSize=12;fontStyle=0;aspect=fixed;pointerEvents=1;shape=mxgraph.aws4.user;" vertex="1" parent="PihacIWAbZqx37nElcyu-73">
          <mxGeometry x="150" y="50" width="78" height="78" as="geometry" />
        </mxCell>
        <mxCell id="PihacIWAbZqx37nElcyu-135" value="" style="sketch=0;outlineConnect=0;fontColor=#232F3E;gradientColor=none;fillColor=#232F3D;strokeColor=none;dashed=0;verticalLabelPosition=bottom;verticalAlign=top;align=center;html=1;fontSize=12;fontStyle=0;aspect=fixed;pointerEvents=1;shape=mxgraph.aws4.user;" vertex="1" parent="PihacIWAbZqx37nElcyu-73">
          <mxGeometry x="81.5" y="50" width="78" height="78" as="geometry" />
        </mxCell>
        <mxCell id="PihacIWAbZqx37nElcyu-72" value="" style="sketch=0;outlineConnect=0;fontColor=#232F3E;gradientColor=none;fillColor=#232F3D;strokeColor=none;dashed=0;verticalLabelPosition=bottom;verticalAlign=top;align=center;html=1;fontSize=12;fontStyle=0;aspect=fixed;pointerEvents=1;shape=mxgraph.aws4.users;" vertex="1" parent="PihacIWAbZqx37nElcyu-61">
          <mxGeometry x="60.5" y="60" width="138" height="138" as="geometry" />
        </mxCell>
        <mxCell id="PihacIWAbZqx37nElcyu-89" value="" style="endArrow=classic;html=1;rounded=0;strokeWidth=2;" edge="1" parent="PihacIWAbZqx37nElcyu-61" source="PihacIWAbZqx37nElcyu-73" target="PihacIWAbZqx37nElcyu-72">
          <mxGeometry width="50" height="50" relative="1" as="geometry">
            <mxPoint x="120" y="300" as="sourcePoint" />
            <mxPoint x="450" y="240" as="targetPoint" />
          </mxGeometry>
        </mxCell>
        <mxCell id="PihacIWAbZqx37nElcyu-102" value="" style="sketch=0;outlineConnect=0;fontColor=#232F3E;gradientColor=none;fillColor=#232F3D;strokeColor=none;dashed=0;verticalLabelPosition=bottom;verticalAlign=top;align=center;html=1;fontSize=12;fontStyle=0;aspect=fixed;pointerEvents=1;shape=mxgraph.aws4.question;" vertex="1" parent="PihacIWAbZqx37nElcyu-61">
          <mxGeometry x="220" y="60" width="31" height="58.98" as="geometry" />
        </mxCell>
        <mxCell id="PihacIWAbZqx37nElcyu-104" value="" style="sketch=0;outlineConnect=0;fontColor=#232F3E;gradientColor=none;fillColor=#232F3D;strokeColor=none;dashed=0;verticalLabelPosition=bottom;verticalAlign=top;align=center;html=1;fontSize=12;fontStyle=0;aspect=fixed;pointerEvents=1;shape=mxgraph.aws4.chat;" vertex="1" parent="PihacIWAbZqx37nElcyu-61">
          <mxGeometry x="207.97" y="140" width="55.06" height="48" as="geometry" />
        </mxCell>
        <mxCell id="PihacIWAbZqx37nElcyu-100" value="" style="sketch=0;outlineConnect=0;fontColor=#232F3E;gradientColor=none;fillColor=#DD344C;strokeColor=none;dashed=0;verticalLabelPosition=bottom;verticalAlign=top;align=center;html=1;fontSize=12;fontStyle=0;aspect=fixed;pointerEvents=1;shape=mxgraph.aws4.addon;" vertex="1" parent="PihacIWAbZqx37nElcyu-61">
          <mxGeometry x="90.5" y="504.30999999999995" width="108" height="55.38" as="geometry" />
        </mxCell>
        <mxCell id="UEzPUAAOIrF-is8g5C7q-88" value="" style="edgeStyle=orthogonalEdgeStyle;rounded=0;orthogonalLoop=1;jettySize=auto;html=1;endArrow=open;endFill=0;strokeWidth=2;" edge="1" parent="1" source="PihacIWAbZqx37nElcyu-102">
          <mxGeometry relative="1" as="geometry">
            <mxPoint x="480" y="199" as="sourcePoint" />
            <mxPoint x="510" y="139" as="targetPoint" />
          </mxGeometry>
        </mxCell>
        <mxCell id="UEzPUAAOIrF-is8g5C7q-89" value="" style="edgeStyle=orthogonalEdgeStyle;rounded=0;orthogonalLoop=1;jettySize=auto;html=1;endArrow=open;endFill=0;strokeWidth=2;" edge="1" parent="1" source="PihacIWAbZqx37nElcyu-105" target="PihacIWAbZqx37nElcyu-104">
          <mxGeometry relative="1" as="geometry">
            <Array as="points">
              <mxPoint x="380" y="210" />
              <mxPoint x="380" y="210" />
            </Array>
            <mxPoint x="570.0082725615316" y="269" as="sourcePoint" />
            <mxPoint x="517.5" y="680" as="targetPoint" />
          </mxGeometry>
        </mxCell>
        <mxCell id="PihacIWAbZqx37nElcyu-101" value="" style="endArrow=none;dashed=1;html=1;rounded=0;exitX=1;exitY=0.5;exitDx=0;exitDy=0;strokeWidth=2;" edge="1" parent="1" source="PihacIWAbZqx37nElcyu-73" target="PihacIWAbZqx37nElcyu-75">
          <mxGeometry width="50" height="50" relative="1" as="geometry">
            <mxPoint x="350" y="500" as="sourcePoint" />
            <mxPoint x="400" y="450" as="targetPoint" />
          </mxGeometry>
        </mxCell>
        <mxCell id="PihacIWAbZqx37nElcyu-148" value="" style="edgeStyle=elbowEdgeStyle;elbow=vertical;endArrow=classic;html=1;curved=0;rounded=0;endSize=8;startSize=8;" edge="1" parent="1" source="PihacIWAbZqx37nElcyu-100" target="PihacIWAbZqx37nElcyu-131">
          <mxGeometry width="50" height="50" relative="1" as="geometry">
            <mxPoint x="810" y="662.19" as="sourcePoint" />
            <mxPoint x="860" y="612.19" as="targetPoint" />
            <Array as="points">
              <mxPoint x="590" y="630" />
            </Array>
          </mxGeometry>
        </mxCell>
        <mxCell id="PihacIWAbZqx37nElcyu-99" value="" style="endArrow=classic;html=1;rounded=0;strokeWidth=2;" edge="1" parent="1" source="PihacIWAbZqx37nElcyu-100" target="PihacIWAbZqx37nElcyu-71">
          <mxGeometry width="50" height="50" relative="1" as="geometry">
            <mxPoint x="260" y="585" as="sourcePoint" />
            <mxPoint x="514" y="225.25" as="targetPoint" />
          </mxGeometry>
        </mxCell>
      </root>
    </mxGraphModel>
  </diagram>
</mxfile>
